<?xml version="1.0" encoding="UTF-8"?>
<svg width="301px" height="390px" viewBox="0 0 301 390" version="1.1" xmlns="http://www.w3.org/2000/svg" xmlns:xlink="http://www.w3.org/1999/xlink">
    <title>onboarding_messaging_apps</title>
    <defs>
        <polygon id="path-1" points="0.142134164 219.330406 138.466862 219.330406 138.466862 0.0959555534 0.142134164 0.0959555534"></polygon>
    </defs>
    <g id="Page-1" stroke="none" stroke-width="1" fill="none" fill-rule="evenodd">
        <g id="g240" transform="translate(149.996174, 194.782277) scale(-1, 1) rotate(-180.000000) translate(-149.996174, -194.782277) translate(-0.003826, 0.282277)">
            <g id="g32" transform="translate(13.322575, 0.297603)" fill="#000000" fill-opacity="0.1" fill-rule="nonzero">
                <path d="M103.15222,241.68805 L103.15222,213.486713 C97.5274253,212.080964 93.8889107,211.005662 93.8889107,211.005662 C98.1967153,221.010828 101.203722,231.408812 103.15222,241.68805 M82.3712457,0.497169711 L125.559641,46.5132551 C156.505907,47.2677056 189.755106,72.2041551 202.548979,82.8234362 L244.440775,82.8234362 C251.42454,82.8234362 257.137494,88.5351905 257.137494,95.5183559 L257.137494,119.772322 C257.829573,120.124358 258.507859,120.520775 259.15316,120.995755 L278.866629,135.501236 C285.294452,140.230645 286.683408,149.359617 281.954599,155.787439 L278.857633,159.99629 C274.128224,166.424112 264.998653,167.813069 258.57083,163.084859 L257.137494,162.029948 L257.137494,178.744806 C258.438292,179.206592 259.69411,179.85729 260.85937,180.714293 L280.572839,195.219774 C287.000661,199.949783 288.390818,209.078155 283.660808,215.506577 L280.563843,219.716028 C275.834434,226.143251 266.705462,227.532807 260.278239,222.802798 L257.137494,220.492068 L257.137494,237.410831 C257.606477,237.680107 258.067663,237.972171 258.513257,238.29962 L278.226726,252.805701 C284.653948,257.53511 286.044105,266.664081 281.314695,273.093103 L278.21773,277.301954 C273.48832,283.728577 264.359349,285.118733 257.931526,280.388724 L257.137494,279.804595 L257.137494,318.406314 L281.080204,339.83139 C287.056436,345.12154 287.618375,354.338071 282.329425,360.314303 L278.866629,364.22689 C273.577079,370.203722 264.361148,370.765062 258.384916,365.476711 L256.619934,363.897043 C255.07385,369.166202 250.192711,373.045206 244.440775,373.045206 L115.848939,373.045206 C108.865174,373.045206 103.15222,367.331652 103.15222,360.349086 L103.15222,302.125656 C100.930849,312.459469 97.6233809,320.326625 93.8889107,324.257804 C81.7319418,337.054676 72.1339876,328.736529 72.7744909,315.300353 C73.4137948,301.862977 70.2148765,278.828847 46.5402426,227.934021 C22.8662084,177.039196 46.5402426,127.186087 46.5402426,127.186087 L0.471981378,76.6385011 L82.3712457,0.497169711 Z" id="path30"></path>
            </g>
            <g id="g58" transform="translate(224.287756, 325.775031)" fill="#F8C293" fill-rule="nonzero">
                <path d="M57.5733321,49.7769433 C62.8628819,43.8007115 62.3003425,34.5841806 56.3241107,29.294031 L27.6483933,3.63311714 C21.6721615,-1.65583302 12.4550308,-1.09329359 7.1666804,4.88293823 L3.7020852,8.79492619 C-1.58626524,14.771158 -1.02432553,23.9888884 4.95190628,29.2778385 L33.6288231,54.9387524 C39.605055,60.2277026 48.8209861,59.6657629 54.110536,53.6889313 L57.5733321,49.7769433 Z" id="path60"></path>
            </g>
            <g id="g62" transform="translate(0.003826, 15.711205)" fill="#F8C293" fill-rule="nonzero">
                <path d="M0,76.1647205 L46.0682612,126.712307 C46.0682612,126.712307 22.3948267,176.565415 46.0682612,227.460241 C69.7428951,278.355066 72.9424131,301.389197 72.3025095,314.826573 C71.6620062,328.263349 81.2599604,336.580896 93.4169293,323.784023 C105.574498,310.987151 113.252142,256.600743 93.4169293,210.531882 C93.4169293,210.531882 134.242419,222.627679 154.617981,218.788857 C174.993543,214.949436 207.529073,87.0694695 207.529073,87.0694695 C207.529073,87.0694695 164.436033,46.9990301 125.087659,46.0400743 L81.899864,0.0233891662 L0,76.1647205 Z" id="path64"></path>
            </g>
            <g id="g66" transform="translate(102.540609, 97.562139)" fill="#1A1A1A" fill-rule="nonzero">
                <path d="M154.128608,13.1938886 C154.128608,6.2107232 148.415654,0.498369156 141.432489,0.498369156 L12.8400525,0.498369156 C5.85628737,0.498369156 0.143333608,6.2107232 0.143333608,13.1938886 L0.143333608,278.024619 C0.143333608,285.006585 5.85628737,290.720139 12.8400525,290.720139 L141.432489,290.720139 C148.415654,290.720139 154.128608,285.006585 154.128608,278.024619 L154.128608,13.1938886 Z" id="path68"></path>
            </g>
            <polygon id="path70" fill="#F0F0F0" fill-rule="nonzero" points="248.838944 137.3947 110.514216 137.3947 110.514216 356.626152 248.838944 356.626152"></polygon>
            <rect id="Rectangle" fill="#388E3C" x="110" y="332" width="139" height="25"></rect>
            <rect id="Rectangle" fill="#C1E696" fill-rule="nonzero" x="150.003826" y="237.282277" width="89" height="49" rx="8"></rect>
            <rect id="Rectangle" fill="#96BB6B" fill-rule="nonzero" x="130.003826" y="147.282277" width="109" height="77" rx="8"></rect>
            <rect id="Rectangle" fill="#C1E696" fill-rule="nonzero" x="150.003826" y="306.282277" width="89" height="14" rx="7"></rect>
            <g id="Forbidden_Symbol_Transparent" transform="translate(184.503826, 185.782277) scale(-1, 1) translate(-184.503826, -185.782277) translate(163.003826, 164.282277)">
                <polygon id="path3818" fill="#F0F0F0" fill-rule="nonzero" points="5 33.9651217 9.03487898 38 39 8.03487852 34.9651195 4"></polygon>
                <circle id="circle3030" stroke="#F0F0F0" stroke-width="5" cx="21.5" cy="21.5" r="21.5"></circle>
            </g>
            <path d="M130.003826,303.282277 C124.483826,303.282277 120.003826,307.762277 120.003826,313.282277 C120.003826,318.802277 124.483826,323.282277 130.003826,323.282277 C135.523826,323.282277 140.003826,318.802277 140.003826,313.282277 C140.003826,307.762277 135.523826,303.282277 130.003826,303.282277 Z M130.003826,306.282277 C131.663826,306.282277 133.003826,307.622277 133.003826,309.282277 C133.003826,310.942277 131.663826,312.282277 130.003826,312.282277 C128.343826,312.282277 127.003826,310.942277 127.003826,309.282277 C127.003826,307.622277 128.343826,306.282277 130.003826,306.282277 Z M130.003826,320.482277 C127.503826,320.482277 125.293826,319.202277 124.003826,317.262277 C124.033826,315.272277 128.003826,314.182277 130.003826,314.182277 C131.993826,314.182277 135.973826,315.272277 136.003826,317.262277 C134.713826,319.202277 132.503826,320.482277 130.003826,320.482277 Z" id="Shape" fill="#03A9F4" fill-rule="nonzero" transform="translate(130.003826, 313.282277) scale(1, -1) translate(-130.003826, -313.282277) "></path>
            <path d="M130.003826,270.282277 C124.483826,270.282277 120.003826,274.762277 120.003826,280.282277 C120.003826,285.802277 124.483826,290.282277 130.003826,290.282277 C135.523826,290.282277 140.003826,285.802277 140.003826,280.282277 C140.003826,274.762277 135.523826,270.282277 130.003826,270.282277 Z M130.003826,273.282277 C131.663826,273.282277 133.003826,274.622277 133.003826,276.282277 C133.003826,277.942277 131.663826,279.282277 130.003826,279.282277 C128.343826,279.282277 127.003826,277.942277 127.003826,276.282277 C127.003826,274.622277 128.343826,273.282277 130.003826,273.282277 Z M130.003826,287.482277 C127.503826,287.482277 125.293826,286.202277 124.003826,284.262277 C124.033826,282.272277 128.003826,281.182277 130.003826,281.182277 C131.993826,281.182277 135.973826,282.272277 136.003826,284.262277 C134.713826,286.202277 132.503826,287.482277 130.003826,287.482277 Z" id="Shape" fill="#9C27B0" fill-rule="nonzero" transform="translate(130.003826, 280.282277) scale(1, -1) translate(-130.003826, -280.282277) "></path>
            <g id="g72" transform="translate(110.419442, 136.877775)">
                <g id="g84-Clipped" transform="translate(0.008929, 0.091976)">
                    <mask id="mask-2" fill="white">
                        <use xlink:href="#path-1"></use>
                    </mask>
                    <g id="path76"></g>
                    <g id="g84" opacity="0.100006" mask="url(#mask-2)" fill="#FFFFFF" fill-rule="nonzero">
                        <g id="g82" transform="translate(0.142314, 0.098175)">
                            <polygon id="path80" points="0 0 0 219.231452 138.324728 219.231452"></polygon>
                        </g>
                    </g>
                </g>
            </g>
            <g id="g88" transform="translate(154.355049, 369.427646)" fill="#E6E6E6" fill-rule="nonzero">
                <path d="M50.3766656,2.39888884 C50.3766656,1.4015508 49.5604436,0.585328876 48.5631056,0.585328876 L2.08043634,0.585328876 C1.08249859,0.585328876 0.266876383,1.4015508 0.266876383,2.39888884 L0.266876383,3.46939298 C0.266876383,4.46733073 1.08249859,5.28235322 2.08043634,5.28235322 L48.5631056,5.28235322 C49.5604436,5.28235322 50.3766656,4.46733073 50.3766656,3.46939298 L50.3766656,2.39888884 Z" id="path90"></path>
            </g>
            <g id="g96" transform="translate(231.669317, 250.547888)" fill="#F8C293" fill-rule="nonzero">
                <path d="M49.1772211,37.7824992 C53.9066305,31.3534771 52.5164744,22.2251053 46.0892515,17.4950963 L26.3757828,2.98961521 C19.9479601,-1.74039385 10.8189887,-0.35023777 6.08957931,6.07818459 L2.9920141,10.2864353 C-1.73739524,16.7148577 -0.347239159,25.8444289 6.07998375,30.5732385 L25.7940522,45.0781198 C32.2218748,49.8081289 41.3508463,48.4185725 46.0802557,41.9913496 L49.1772211,37.7824992 Z" id="path98"></path>
            </g>
            <g id="g100" transform="translate(234.015490, 192.961785)" fill="#F8C293" fill-rule="nonzero">
                <path d="M49.1772211,37.7824992 C53.9072302,31.3540768 52.5170741,22.2257051 46.0892515,17.495696 L26.3757828,2.99021493 C19.9479601,-1.73979413 10.8195884,-0.35023777 6.08957931,6.07818459 L2.99261382,10.2864353 C-1.73739524,16.7154574 -0.347239159,25.8444289 6.08058348,30.5726388 L25.7946519,45.0787196 C32.2218748,49.8081289 41.3508463,48.4191723 46.0802557,41.9913496 L49.1772211,37.7824992 Z" id="path102"></path>
            </g>
            <g id="g104" transform="translate(232.241543, 133.081957)" fill="#F8C293" fill-rule="nonzero">
                <path d="M49.2447781,37.9429002 C53.9741874,31.5150775 52.5846311,22.3861061 46.1568084,17.6566967 L26.4433411,3.15121565 C20.0161182,-1.57759397 10.886547,-0.189237051 6.15773739,6.23858558 L3.06017218,10.4468363 C-1.66923713,16.8758584 -0.279680805,26.0048299 6.14754211,30.7348389 L25.8616106,45.24032 C32.2894318,49.9685299 41.4184033,48.5795733 46.1478126,42.1517506 L49.2447781,37.9429002 Z" id="path106"></path>
            </g>
        </g>
        <g id="account_circle-24px" transform="translate(210.000000, 115.000000)">
            <polygon id="Path" points="0 0 24 0 24 24 0 24"></polygon>
        </g>
    </g>
</svg>