<svg xmlns="http://www.w3.org/2000/svg" viewBox="0 0 299.7872 387.4875">
  <defs>
    <path id="b" d="M257.7299 1392.402H556.718v62.723H257.7299z"/>
    <path id="c" d="M257.7299 1392.402H556.718v62.723H257.7299z"/>
    <clipPath id="d" clipPathUnits="userSpaceOnUse">
      <path d="M263.237 1634.72h230.648v-365.56H263.237z"/>
    </clipPath>
    <filter id="a" width="1.7687" height="1.7687" x="-.3843" y="-.3843" filterUnits="objectBoundingBox">
      <feOffset dy="2" in="SourceAlpha" result="shadowOffsetOuter1"/>
      <feColorMatrix in="shadowBlurOuter1" result="shadowMatrixOuter1" values="0 0 0 0 0 0 0 0 0 0 0 0 0 0 0 0 0 0 0.5 0"/>
      <feMerge>
        <feMergeNode in="shadowMatrixOuter1"/>
        <feMergeNode in="SourceGraphic"/>
      </feMerge>
    </filter>
  </defs>
  <path fill-opacity=".1" d="M116.471 146.2966v28.2014c-5.6248 1.4057-9.2633 2.481-9.2633 2.481 4.3078-10.0052 7.3148-20.4031 9.2633-30.6824M95.69 387.4875l43.1884-46.016c30.9463-.7545 64.1955-25.691 76.9893-36.3103h41.8918c6.9838 0 12.6967-5.7117 12.6967-12.6949v-24.254c.6921-.352 1.3704-.7484 2.0157-1.2234l19.7135-14.5055c6.4278-4.7294 7.8168-13.8583 3.088-20.2862l-3.097-4.2088c-4.7294-6.4278-13.859-7.8168-20.2868-3.0886l-1.4334 1.055v-16.715c1.3008-.4617 2.5567-1.1124 3.722-1.9694l19.7134-14.5055c6.4278-4.73 7.818-13.8584 3.088-20.2868l-3.097-4.2095c-4.7294-6.4272-13.8584-7.8167-20.2856-3.0867l-3.1408 2.3107v-16.9188c.469-.2692.9302-.5613 1.3758-.8887l19.7135-14.5061c6.4272-4.7294 7.8174-13.8584 3.088-20.2874l-3.097-4.2089c-4.7294-6.4266-13.8584-7.8168-20.2862-3.0868l-.794.5842V69.5784l23.9427-21.4251c5.9762-5.2902 6.5381-14.5067 1.2492-20.483l-3.4628-3.9125c-5.2896-5.9768-14.5055-6.5382-20.4817-1.2498l-1.765 1.5796c-1.5461-5.2691-6.4272-9.1481-12.1792-9.1481H129.1677c-6.9838 0-12.6967 5.7135-12.6967 12.696V85.859c-2.2214-10.3338-5.5289-18.201-9.2633-22.1321-12.157-12.7969-21.755-4.4788-21.1145 8.9574.6393 13.4374-2.5596 36.4715-26.2342 87.3664-23.674 50.8948 0 100.7479 0 100.7479l-46.0683 50.5476z"/>
  <path fill="#f8c293" d="M281.8573 12.7303c5.2895 5.9762 4.727 15.1928-1.2493 20.483L251.9323 58.874c-5.9762 5.289-15.1933 4.7264-20.4817-1.2498l-3.4646-3.912c-5.2883-5.9762-4.7264-15.194 1.2498-20.4829l28.677-25.661c5.9762-5.2889 15.1921-4.727 20.4817 1.25zM0 296.4064l46.0683-50.5476s-23.6735-49.8531 0-100.748c23.6746-50.8948 26.8741-73.929 26.2342-87.3663C71.662 44.3077 81.26 35.9902 93.417 48.787c12.1576 12.797 19.8352 67.1833 0 113.2522 0 0 40.8255-12.0958 61.201-8.257 20.3756 3.8394 52.9112 131.7194 52.9112 131.7194s-43.093 40.0704-82.4414 41.0294l-43.1878 46.0167z"/>
  <path fill="#1a1a1a" d="M256.6654 277.5262c0 6.9832-5.713 12.6956-12.6961 12.6956H115.3768c-6.9837 0-12.6967-5.7124-12.6967-12.6956V12.6955c0-6.982 5.713-12.6955 12.6967-12.6955h128.5925c6.9831 0 12.696 5.7136 12.696 12.6955z"/>
  <path fill="#043d51" d="M248.8351 250.8876H110.5104V31.656H248.835z"/>
  <path fill="#f0f0f0" d="M248.8351 250.8876H110.5104v-62.9122H248.835z"/>
  <g fill="none" fill-rule="evenodd" filter="url(#a)" transform="translate(117.9117 210.419) scale(.1831)">
    <path fill="#41597b" d="M0 0h108v108H0z"/>
    <path fill="#fff" fill-rule="nonzero" d="M45.6449 26.6409L39.7406 32.72h-8.8564c-3.2607 0-5.9042 2.7214-5.9042 6.0793v36.481c0 3.358 2.6435 6.0793 5.9042 6.0793h47.2313c3.2607 0 5.9043-2.7213 5.9043-6.0792V38.7994c0-3.358-2.6436-6.0793-5.9043-6.0793h-8.8564L63.355 26.641zm12.0738 19.6065l14.4926 19.9114H36.7885l9.6523-13.2536 7.2618 9.9402 2.5683-2.0066-4.575-6.291z"/>
  </g>
  <g style="line-height:1.25;white-space:pre;shape-inside:url(#b)" aria-label="Pick Camera" font-family="Roboto" font-size="30" font-weight="300" transform="matrix(.35085 0 0 .37012 26.5305 -321.2758)">
    <path style="-inkscape-font-specification:'Roboto Light'" d="M262.2715 1410.9099v8.8624h-1.7432v-21.3282h7.3389q3.4277 0 5.2295 1.6846 1.8017 1.6846 1.8017 4.541 0 2.9004-1.8017 4.5703-1.8018 1.6699-5.2295 1.6699zm0-1.4941h5.5957q2.6953 0 3.9844-1.3184 1.3037-1.3183 1.3037-3.3984 0-2.0947-1.3037-3.4277-1.2891-1.333-3.9844-1.333h-5.5957zM280.582 1419.7723h-1.7431v-15.8497h1.7431zm0-20.3907h-1.7431v-2.4609h1.7431zM291.29 1418.5857q1.7871 0 3.047-.9668 1.2743-.9668 1.3622-2.7392h1.6846q-.0732 2.2851-1.831 3.7353-1.7579 1.4502-4.2628 1.4502-3.2959 0-5.039-2.1679-1.7285-2.1827-1.7285-5.7422v-.6153q0-3.5302 1.7285-5.7129 1.7431-2.1972 5.0244-2.1972 2.6367 0 4.336 1.5234 1.6991 1.5235 1.7724 4.1162h-1.6846q-.0732-1.9043-1.3183-3.0176-1.2452-1.1279-3.1055-1.1279-2.6074 0-3.8086 1.8018-1.1865 1.8017-1.1865 4.6142v.6153q0 2.8711 1.1865 4.6582 1.2012 1.7724 3.8232 1.7724zM304.7373 1412.0525h-2.0215v7.7198h-1.7578v-22.8516h1.7578v13.623h1.8457l5.918-6.6211h2.124l-6.416 7.2364 7.0606 8.6133h-2.1094zM338.3994 1413.1365q-.3516 3.3399-2.329 5.1416-1.9776 1.8018-5.4054 1.8018-3.6328 0-5.786-2.5196-2.1534-2.5341-2.1534-6.7089v-3.4717q0-4.1602 2.1533-6.6944 2.1533-2.5488 5.7861-2.5488 3.457 0 5.42 1.7871 1.9775 1.7725 2.3144 5.1709h-1.7431q-.3516-2.7099-1.8018-4.0869-1.4502-1.3769-4.1895-1.3769-2.8564 0-4.5263 2.1386-1.6553 2.124-1.6553 5.5811v3.501q0 3.5009 1.6553 5.625 1.6699 2.124 4.5263 2.124 2.754 0 4.1895-1.333 1.4502-1.333 1.8018-4.1309zM352.4033 1419.7723q-.1758-.8204-.249-1.377-.0732-.5566-.0732-1.1279l-.0439-.015q-.8643 1.2305-2.2998 2.0215-1.4355.791-3.2959.791-2.3584 0-3.6182-1.2011-1.2597-1.2012-1.2597-3.3106 0-2.2412 1.8603-3.5303 1.875-1.3037 5.1563-1.3037h3.501v-1.9629q0-1.7285-1.084-2.6806-1.0694-.9522-3.0616-.9522-1.875 0-3.0615.9229-1.1865.9082-1.1865 2.2558l-1.7432-.015q0-1.875 1.6846-3.2666 1.6992-1.3916 4.3799-1.3916 2.6806 0 4.248 1.3183 1.5674 1.3037 1.5674 3.8379v7.793q0 .8496.088 1.626.0878.7763.3222 1.5674zm-5.7568-1.2452q1.9336 0 3.3545-.8642 1.4355-.8789 2.08-2.2852v-3.3105h-3.5302q-2.4317 0-3.838 1.0107-1.4062.9961-1.4062 2.5342 0 1.3037.8643 2.1094.8789.8056 2.4756.8056zM360.0059 1403.9226l.1318 2.7832.0439.015q.7617-1.4502 2.0508-2.2705 1.3037-.8203 3.0908-.8203 1.8603 0 3.0469.8496 1.1865.8496 1.6699 2.666h.0439q.7324-1.5967 2.08-2.5488 1.3477-.9668 3.2374-.9668 2.5049 0 3.8232 1.582 1.333 1.5674 1.333 4.9658v9.5948h-1.7578v-9.5948q0-2.8271-.9668-3.9258-.9668-1.0986-2.8418-1.0986-2.0947.029-3.2959 1.4502-1.2011 1.4063-1.3476 3.1787v9.9903h-1.7578v-9.7559q0-2.6807-.9815-3.7647-.9814-1.0986-2.8418-1.0986-1.875 0-3.003 1.0401-1.1132 1.04-1.5966 2.666v10.9131h-1.7724v-15.8497zM391.1924 1420.0652q-3.164 0-5.127-2.1386-1.9482-2.1534-1.9482-5.6104v-.8057q0-3.4716 1.9336-5.6689 1.9482-2.2119 4.7754-2.2119 2.9736 0 4.5996 1.8164 1.6406 1.8017 1.6406 4.9512v1.4941H385.875v.4248q0 2.7246 1.4502 4.4971 1.4502 1.7724 3.8672 1.7724 1.4502 0 2.5342-.4101 1.0986-.4248 2.08-1.333l.7471 1.2011q-.8935.9375-2.1826 1.4795-1.289.542-3.1787.542zm-.3662-14.9414q-1.9776 0-3.296 1.4795-1.3036 1.4649-1.5966 3.8086h9.3896v-.4395q0-2.1093-1.1865-3.4716-1.1865-1.377-3.3105-1.377zM407.8477 1405.4314l-1.3037-.088q-1.6846 0-2.7393.9229-1.04.9082-1.4942 2.5635v10.9424h-1.7578v-15.8497h1.5381l.2198 2.6368v.073l.0439.015q.6738-1.4356 1.8017-2.2266 1.128-.791 2.754-.791.3368 0 .6445.059.3222.044.5273.1025zM420.7822 1419.7723q-.1757-.8204-.249-1.377-.0732-.5566-.0732-1.1279l-.0439-.015q-.8643 1.2305-2.2998 2.0215-1.4356.791-3.296.791-2.3583 0-3.618-1.2011-1.2598-1.2012-1.2598-3.3106 0-2.2412 1.8603-3.5303 1.875-1.3037 5.1563-1.3037h3.501v-1.9629q0-1.7285-1.084-2.6806-1.0694-.9522-3.0616-.9522-1.875 0-3.0615.9229-1.1865.9082-1.1865 2.2558l-1.7432-.015q0-1.875 1.6846-3.2666 1.6992-1.3916 4.3799-1.3916 2.6806 0 4.248 1.3183 1.5674 1.3037 1.5674 3.8379v7.793q0 .8496.0879 1.626.0879.7763.3223 1.5674zm-5.7568-1.2452q1.9336 0 3.3545-.8642 1.4355-.8789 2.08-2.2852v-3.3105h-3.5302q-2.4316 0-3.8379 1.0107-1.4062.9961-1.4062 2.5342 0 1.3037.8642 2.1094.879.8056 2.4756.8056z"/>
  </g>
  <g style="line-height:1.25;white-space:pre;shape-inside:url(#c)" aria-label="Pict2Cam" font-family="Roboto" font-size="30" font-weight="300" transform="matrix(.35085 0 0 .37012 50.3162 -300.931)">
    <path style="-inkscape-font-specification:'Roboto Light'" d="M262.2715 1410.9099v8.8624h-1.7432v-21.3282h7.3389q3.4277 0 5.2295 1.6846 1.8017 1.6846 1.8017 4.541 0 2.9004-1.8017 4.5703-1.8018 1.6699-5.2295 1.6699zm0-1.4941h5.5957q2.6953 0 3.9844-1.3184 1.3037-1.3183 1.3037-3.3984 0-2.0947-1.3037-3.4277-1.2891-1.333-3.9844-1.333h-5.5957zM280.582 1419.7723h-1.7431v-15.8497h1.7431zm0-20.3907h-1.7431v-2.4609h1.7431zM291.29 1418.5857q1.7871 0 3.047-.9668 1.2743-.9668 1.3622-2.7392h1.6846q-.0732 2.2851-1.831 3.7353-1.7579 1.4502-4.2628 1.4502-3.2959 0-5.039-2.1679-1.7285-2.1827-1.7285-5.7422v-.6153q0-3.5302 1.7285-5.7129 1.7431-2.1972 5.0244-2.1972 2.6367 0 4.336 1.5234 1.6991 1.5235 1.7724 4.1162h-1.6846q-.0732-1.9043-1.3183-3.0176-1.2452-1.1279-3.1055-1.1279-2.6074 0-3.8086 1.8018-1.1865 1.8017-1.1865 4.6142v.6153q0 2.8711 1.1865 4.6582 1.2012 1.7724 3.8232 1.7724zM303.4775 1399.865v4.0576h3.3252v1.4356h-3.3252v10.3271q0 1.5821.5127 2.2266.5274.6299 1.421.6299.3808 0 .6884-.029.3076-.044.791-.1318l.249 1.3183q-.3955.1611-.9374.2637-.542.1025-1.0987.1025-1.6406 0-2.5195-1.0107-.8643-1.0254-.8643-3.3692v-10.3271h-2.6074v-1.4356h2.6074v-4.0576zM323.4287 1419.7723h-13.2422v-1.3477l6.9873-7.9248q1.9776-2.2266 2.754-3.6621.7763-1.4356.7763-2.8125 0-2.0215-1.1133-3.208-1.0986-1.1865-3.1787-1.1865-2.4756 0-3.7207 1.333-1.2305 1.3183-1.2305 3.6181h-1.7431q0-2.7832 1.7724-4.6142 1.7725-1.8311 4.922-1.8311 2.7978 0 4.4237 1.5674 1.6407 1.5527 1.6407 4.2627 0 1.7871-1.084 3.5596-1.084 1.7578-3.1055 4.0429l-5.9473 6.7237h11.089zM342.501 1413.1365q-.3516 3.3399-2.3291 5.1416-1.9776 1.8018-5.4053 1.8018-3.6328 0-5.7861-2.5196-2.1533-2.5341-2.1533-6.7089v-3.4717q0-4.1602 2.1533-6.6944 2.1533-2.5488 5.7861-2.5488 3.457 0 5.42 1.7871 1.9775 1.7725 2.3144 5.1709h-1.7432q-.3515-2.7099-1.8017-4.0869-1.4502-1.3769-4.1895-1.3769-2.8564 0-4.5264 2.1386-1.6552 2.124-1.6552 5.5811v3.501q0 3.5009 1.6552 5.625 1.67 2.124 4.5264 2.124 2.754 0 4.1894-1.333 1.4502-1.333 1.8018-4.1309zM356.5049 1419.7723q-.1758-.8204-.249-1.377-.0732-.5566-.0732-1.1279l-.044-.015q-.8642 1.2305-2.2997 2.0215-1.4356.791-3.296.791-2.3583 0-3.6181-1.2011-1.2598-1.2012-1.2598-3.3106 0-2.2412 1.8604-3.5303 1.875-1.3037 5.1562-1.3037h3.501v-1.9629q0-1.7285-1.084-2.6806-1.0693-.9522-3.0615-.9522-1.875 0-3.0615.9229-1.1866.9082-1.1866 2.2558l-1.7431-.015q0-1.875 1.6846-3.2666 1.6992-1.3916 4.3798-1.3916 2.6807 0 4.248 1.3183 1.5675 1.3037 1.5675 3.8379v7.793q0 .8496.0879 1.626.0879.7763.3222 1.5674zm-5.7569-1.2452q1.9336 0 3.3545-.8642 1.4356-.8789 2.0801-2.2852v-3.3105h-3.5303q-2.4316 0-3.8378 1.0107-1.4063.9961-1.4063 2.5342 0 1.3037.8643 2.1094.8789.8056 2.4756.8056zM364.1074 1403.9226l.1319 2.7832.0439.015q.7617-1.4502 2.0507-2.2705 1.3038-.8203 3.0909-.8203 1.8603 0 3.0468.8496 1.1866.8496 1.67 2.666h.0439q.7324-1.5967 2.08-2.5488 1.3477-.9668 3.2373-.9668 2.505 0 3.8233 1.582 1.333 1.5674 1.333 4.9658v9.5948h-1.7578v-9.5948q0-2.8271-.9668-3.9258-.9668-1.0986-2.8418-1.0986-2.0947.029-3.296 1.4502-1.201 1.4063-1.3476 3.1787v9.9903h-1.7578v-9.7559q0-2.6807-.9814-3.7647-.9815-1.0986-2.8418-1.0986-1.875 0-3.003 1.0401-1.1132 1.04-1.5966 2.666v10.9131h-1.7725v-15.8497z"/>
  </g>
  <g clip-path="url(#d)" opacity=".1" transform="matrix(.59972 0 0 -.59972 -47.3024 1012.36)">
    <path fill="#fff" d="M263.2373 1269.1637v365.555h230.648z"/>
  </g>
  <path fill="#e6e6e6" d="M204.7279 16.4557c0 .9974-.8162 1.8136-1.8136 1.8136h-46.4826c-.998 0-1.8136-.8162-1.8136-1.8136v-1.0705c0-.9979.8156-1.813 1.8136-1.813h46.4826c.9974 0 1.8136.8151 1.8136 1.813z"/>
  <path fill="#f8c293" d="M280.8427 99.9519c4.7294 6.429 3.3393 15.5574-3.088 20.2874l-19.7134 14.5055c-6.4278 4.73-15.5568 3.3398-20.2862-3.0886l-3.0976-4.2082c-4.7294-6.4285-3.3392-15.558 3.088-20.2868l19.714-14.505c6.4279-4.73 15.5568-3.3404 20.2862 3.0868zM283.1889 157.538c4.73 6.4284 3.3398 15.5568-3.088 20.2868l-19.7135 14.5055c-6.4278 4.73-15.5561 3.3404-20.2862-3.088l-3.097-4.2082c-4.73-6.429-3.3398-15.558 3.088-20.2862l19.7141-14.5061c6.4272-4.7294 15.5562-3.3405 20.2856 3.0873z"/>
  <g>
    <path fill="#f8c293" d="M281.4825 217.2574c4.7294 6.4278 3.3398 15.5568-3.088 20.2862l-19.7134 14.5055c-6.4273 4.7288-15.5568 3.3405-20.2856-3.0874l-3.0976-4.2082c-4.7294-6.429-3.3399-15.558 3.0874-20.288l19.714-14.5055c6.4278-4.7282 15.5568-3.3393 20.2862 3.0886z"/>
  </g>
</svg>
